<?xml version="1.0" standalone="no"?>
<!DOCTYPE svg PUBLIC "-//W3C//DTD SVG 20010904//EN"
 "http://www.w3.org/TR/2001/REC-SVG-20010904/DTD/svg10.dtd">
<svg version="1.0" xmlns="http://www.w3.org/2000/svg"
 width="200.000000pt" height="200.000000pt" viewBox="0 0 200.000000 200.000000"
 preserveAspectRatio="xMidYMid meet">

<g transform="translate(0.000000,200.000000) scale(0.100000,-0.100000)"
fill="#000000" stroke="none">
<path d="M26 1974 l-26 -27 0 -947 0 -947 26 -27 27 -26 947 0 947 0 27 26 26
27 0 947 0 947 -26 27 -27 26 -947 0 -947 0 -27 -26z m1881 -66 l23 -21 0
-876 0 -875 -22 -23 -21 -23 -876 0 -875 0 -23 22 -23 21 0 877 c0 868 0 876
20 898 l21 22 876 0 877 0 23 -22z"/>
<path d="M142 1878 c-17 -17 -17 -1719 0 -1736 16 -16 1699 -17 1729 -2 19 10
19 31 19 868 0 654 -3 861 -12 870 -17 17 -1719 17 -1736 0z m1402 -105 c3
-10 8 -44 12 -75 5 -47 2 -65 -16 -103 -12 -24 -35 -54 -51 -66 -34 -24 -36
-39 -8 -65 33 -30 49 -69 49 -123 0 -42 -4 -53 -27 -70 -14 -12 -38 -24 -52
-28 -14 -3 -39 -12 -54 -20 l-29 -15 7 -79 c7 -76 6 -79 -14 -79 -49 0 -71
152 -30 204 23 29 47 161 35 191 -5 14 -15 16 -65 10 -72 -8 -97 3 -110 50
-12 44 0 90 38 143 30 41 42 47 181 86 30 9 66 25 80 36 31 24 47 25 54 3z
m-934 -44 c6 -10 10 -31 10 -48 0 -25 5 -30 33 -36 75 -16 80 -60 7 -71 -40
-7 -50 -21 -50 -76 0 -39 14 -42 59 -13 23 14 47 25 56 25 21 0 113 -119 121
-157 13 -67 -15 -63 -97 14 l-48 45 -40 -33 c-61 -48 -57 -73 23 -131 78 -56
104 -91 86 -113 -17 -20 -18 -20 -84 20 -32 19 -62 32 -67 29 -5 -3 -9 -32 -9
-64 0 -68 -13 -110 -34 -110 -25 0 -38 39 -38 107 0 72 -6 75 -60 38 -45 -30
-55 -31 -63 -5 -8 26 4 45 69 110 31 30 56 59 56 65 0 13 -82 75 -99 75 -5 0
-24 -20 -41 -45 -47 -68 -100 -86 -100 -33 0 36 104 198 127 198 3 0 25 -16
49 -35 23 -19 47 -35 52 -35 13 0 20 86 9 106 -5 9 -20 14 -37 12 -32 -3 -60
17 -60 43 0 13 12 21 43 30 23 6 48 13 55 15 7 2 12 20 12 42 0 59 36 78 60
31z m638 -776 c2 -12 9 -26 15 -31 7 -6 69 -13 139 -17 l128 -6 12 28 c21 47
50 57 68 24 7 -14 6 -29 -5 -53 -42 -102 -26 -196 45 -262 44 -40 47 -48 26
-65 -25 -21 -89 18 -131 80 -21 29 -35 38 -67 43 -26 4 -45 2 -55 -6 -12 -10
-4 -16 45 -38 63 -29 102 -76 102 -122 0 -38 -42 -70 -97 -76 -45 -4 -51 -9
-89 -61 -50 -68 -62 -99 -40 -107 11 -4 41 16 92 62 121 110 121 111 140 92
16 -15 11 -23 -62 -103 -44 -47 -93 -95 -110 -106 -45 -27 -88 -25 -113 7 -36
45 -25 105 30 176 34 43 46 99 30 140 -12 31 -34 29 -53 -5 -9 -18 -7 -24 16
-42 31 -24 33 -41 7 -50 -21 -6 -72 11 -83 28 -11 17 -10 65 3 90 6 12 32 41
57 64 39 35 44 45 32 53 -8 5 -27 10 -42 10 -23 0 -27 -5 -33 -39 -7 -44 -27
-66 -50 -57 -12 4 -15 34 -14 183 0 97 3 181 6 186 10 17 48 2 51 -20z m-566
-34 c63 -14 104 -51 114 -104 12 -66 -29 -120 -114 -148 l-37 -12 3 -70 c4
-92 -21 -213 -64 -302 -32 -67 -54 -87 -68 -64 -3 5 8 60 24 122 35 131 49
264 31 297 -8 15 -21 22 -41 22 -18 0 -42 11 -62 29 -27 24 -32 36 -36 88 -3
42 1 69 12 91 20 39 30 45 86 53 71 10 96 10 152 -2z"/>
<path d="M1460 1678 c0 -7 5 -20 10 -28 9 -13 11 -13 19 -1 5 8 7 20 4 28 -6
17 -33 17 -33 1z"/>
<path d="M1353 1644 c-7 -3 -13 -13 -13 -21 0 -12 3 -13 15 -3 8 6 23 9 36 5
15 -5 20 -3 17 6 -5 15 -35 21 -55 13z"/>
<path d="M1407 1581 c-4 -17 -3 -21 5 -13 5 5 8 16 6 23 -3 8 -7 3 -11 -10z"/>
<path d="M1254 1556 c-7 -31 1 -46 27 -46 23 0 23 3 4 40 -19 36 -23 37 -31 6z"/>
<path d="M1426 1411 c-3 -5 -9 -29 -12 -54 -7 -48 3 -62 36 -52 27 9 28 75 1
99 -11 10 -22 13 -25 7z"/>
<path d="M1268 835 c-5 -5 -8 -18 -8 -31 0 -27 18 -32 150 -36 l95 -3 3 26 c2
18 -3 29 -15 33 -27 11 -217 19 -225 11z"/>
<path d="M1420 551 c0 -48 8 -54 49 -38 38 14 39 29 5 56 -40 32 -54 27 -54
-18z"/>
<path d="M517 835 c-9 -9 -17 -32 -17 -51 0 -32 4 -36 57 -59 51 -23 58 -24
73 -10 10 9 34 20 54 26 47 13 59 50 27 82 -29 30 -168 38 -194 12z"/>
</g>
</svg>
