<?xml version="1.0" standalone="no"?><!DOCTYPE svg PUBLIC "-//W3C//DTD SVG 1.1//EN" "http://www.w3.org/Graphics/SVG/1.1/DTD/svg11.dtd"><svg class="icon" width="200px" height="200.00px" viewBox="0 0 1024 1024" version="1.1" xmlns="http://www.w3.org/2000/svg"><path fill="#333333" d="M514.565429 65.969481c119.145587 0 215.737506 125.6927 215.737506 280.740986s-96.591919 280.735869-215.737506 280.735869c-119.150704 0-215.737506-125.687584-215.737506-280.735869S395.414725 65.969481 514.565429 65.969481zM87.209224 958.030519c0 0 23.459295-185.707562 76.558653-220.754776 53.110615-35.042097 206.130707-58.32129 206.130707-58.32129s99.186 104.97382 141.364635 104.97382c42.111097 0 141.342122-104.97382 141.342122-104.97382s153.049768 23.278169 206.142987 58.32129c62.495356 41.244356 78.042447 220.754776 78.042447 220.754776L87.209224 958.030519z" /></svg>